<svg width="84" height="84" viewBox="0 0 84 84" fill="none" xmlns="http://www.w3.org/2000/svg">
<path d="M84 42C84 65.1741 65.2235 84 42 84C18.8259 84 0 65.2235 0 42C0 18.8259 18.7765 0 42 0C65.2235 0 84 18.8259 84 42Z" fill="white" fill-opacity="0.1"/>
<path d="M21.6924 59.1987C22.0383 58.9516 22.3841 58.6058 22.5818 58.0622C22.7794 57.4693 22.6806 56.9752 22.5818 56.6787C22.5818 56.6787 22.5818 56.6787 22.5818 56.6293L22.6312 56.234C22.8289 56.3328 23.0265 56.481 23.323 56.6787C23.3724 56.7281 23.4712 56.7775 23.57 56.8269C23.6689 56.9258 23.8171 56.9752 23.8665 57.074C24.0147 57.1728 24.2124 57.321 24.41 57.4199C29.9936 60.8787 34.6383 62.3116 38.2947 62.1634C42.0994 61.9658 44.7677 60.0881 46.1512 57.2716C47.4853 54.554 47.5347 51.2434 46.5959 48.1305C45.6571 45.0175 43.6806 42.0034 40.7653 39.8787C35.8242 36.3705 31.2783 30.9846 28.9559 26.3893C27.77 24.0669 27.3253 22.1893 27.4736 20.954C27.523 20.3611 27.7206 20.0646 27.9183 19.8175C28.1159 19.6199 28.5112 19.3728 29.2524 19.2246C30.7841 18.9775 32.6124 18.434 34.3912 17.8411C35.083 17.6434 35.8241 17.3963 36.5159 17.1987C39.1347 16.4081 41.9018 15.7658 44.8171 15.8152C50.4994 15.8152 57.1206 18.2858 64.1371 28.514C73.13 41.6575 68.1889 56.3328 57.8618 64.0411C52.723 67.8952 46.25 69.9211 39.6289 69.1305C33.6006 68.4881 27.3747 65.474 21.6924 59.1987Z" fill="white" stroke="black" stroke-width="6.8423"/>
<path d="M26.8311 19.9643C26.8311 19.9643 42.8899 15.7148 46.3981 15.7148C49.9063 15.7148 63.9393 22.5337 68.0405 34.9854C73.8711 52.6254 58.0593 64.2372 56.2805 63.1007C73.2781 49.0678 45.4593 23.0772 31.7722 25.0043C30.0428 25.2513 31.0311 26.7337 31.0311 26.7337L30.6358 30.5384L27.7699 25.7948L26.8311 19.9643Z" fill="black"/>
<path d="M65.7178 29.6445C70.8072 38.5881 69.7201 33.4492 68.5836 43.6775C70.6589 40.3175 73.9201 42.8375 75.2542 44.1222C75.5013 44.3692 75.8966 44.221 75.8966 43.8751C75.8472 42.3433 75.4025 39.0822 72.9319 35.5739C69.4731 30.7316 65.7178 29.6445 65.7178 29.6445Z" fill="black"/>
<path d="M68.5836 43.6775C69.7201 33.4986 70.7578 38.5881 65.7178 29.6445C65.7178 29.6445 69.4731 30.7316 72.9319 35.5739C75.4519 39.0822 75.8472 42.3433 75.8966 43.8751C75.8966 44.221 75.5013 44.3692 75.2542 44.1222C73.9201 42.7881 70.6589 40.2681 68.5836 43.6775ZM68.5836 43.6775C68.7813 43.1834 69.0778 42.4422 69.0778 42.4422" stroke="black" stroke-width="0.3844"/>
<path d="M24.9535 42.2947C22.8288 45.9017 18.4311 45.6547 18.53 49.9535C22.4335 58.65 22.4829 58.057 22.4829 58.057C29.7464 53.9558 26.7817 44.9629 25.6947 42.3441C25.497 41.9982 25.1017 41.9982 24.9535 42.2947Z" fill="black"/>
<path d="M8.4978 50.3008C12.6484 50.8443 15.1684 47.2373 18.5284 49.9549C22.9754 58.4043 22.4813 58.0584 22.4813 58.0584C14.8225 61.2702 9.53544 53.3643 8.1025 50.8937C7.90486 50.5972 8.15192 50.2514 8.4978 50.3008Z" fill="black"/>
<path d="M43.4327 44.9164C43.4327 44.9164 47.6327 49.1658 45.4092 49.8576C42.6915 48.1776 37.7998 49.4623 35.428 50.3023C34.835 50.4999 34.2421 49.9564 34.4892 49.4129C35.2797 47.1894 37.3056 43.0388 41.1597 42.4952C43.4327 41.9023 43.4327 44.9164 43.4327 44.9164Z" fill="black"/>
<path d="M46.004 24.0643C45.5099 23.422 44.571 21.5938 47.5357 21.5938C50.5004 21.5938 54.9969 24.9043 55.8863 26.1396C55.5899 26.8808 53.7122 27.0785 52.7734 26.9796C51.8346 26.9302 50.204 26.7326 48.9687 26.1396C47.7334 25.4973 46.4981 24.7067 46.004 24.0643Z" fill="white"/>
</svg>
